<svg width="120" height="40" viewBox="0 0 120 40" fill="none" xmlns="http://www.w3.org/2000/svg">
<mask id="mask0_402_527" style="mask-type:luminance" maskUnits="userSpaceOnUse" x="0" y="5" width="8" height="30">
<path d="M0 5.53027H7.88128V34.383H0V5.53027Z" fill="white"/>
</mask>
<g mask="url(#mask0_402_527)">
<path d="M2.32225 30.4643L7.77983 34.0937V26.0611L5.49817 26.6353L7.77983 22.9952V13.8127C7.77983 12.1023 6.91211 10.5016 5.45759 9.53599L0 5.90503V26.1876C0 27.8964 0.869281 29.4972 2.32225 30.4643Z" fill="#18181B"/>
</g>
<mask id="mask1_402_527" style="mask-type:luminance" maskUnits="userSpaceOnUse" x="9" y="0" width="9" height="40">
<path d="M9.44031 0H17.2794V40H9.44031V0Z" fill="white"/>
</mask>
<g mask="url(#mask1_402_527)">
<path d="M9.44666 23.3195L11.5254 26.6352L9.44666 26.1128V32.0923C9.44666 33.8027 10.3144 35.4019 11.7689 36.369L17.2265 40V14.3822L15.1071 14.9153L17.2265 11.5341V7.9077C17.2265 6.19731 16.3588 4.59658 14.9042 3.62944L9.44666 0V23.3195Z" fill="#F43F5E"/>
</g>
<mask id="mask2_402_527" style="mask-type:luminance" maskUnits="userSpaceOnUse" x="18" y="5" width="9" height="30">
<path d="M18.8809 5.89111H26.6685V34.1209H18.8809V5.89111Z" fill="white"/>
</mask>
<g mask="url(#mask2_402_527)">
<path d="M18.8932 5.90479V11.3406L21.1327 14.9152L18.8932 14.3516V26.1873C18.8932 27.8962 19.7609 29.4969 21.2154 30.4641L26.673 34.0935V13.8125C26.673 12.1021 25.8037 10.5014 24.3508 9.53575L18.8932 5.90479Z" fill="#18181B"/>
</g>
<path d="M41.2989 12.8064H45.3468V24.4854C45.3468 26.3509 44.2136 27.2825 41.9515 27.2825H38.5298C36.2655 27.2825 35.1345 26.3509 35.1345 24.4854V12.8064H39.1736V23.969C39.1736 24.3025 39.3676 24.4682 39.7556 24.4682H40.7257C41.1071 24.4682 41.2989 24.3025 41.2989 23.969V12.8064Z" fill="#18181B"/>
<path d="M47.1954 12.8064H54.0566C56.3186 12.8064 57.4518 13.7402 57.4518 15.6035V19.7518C57.4518 21.6173 56.3186 22.5489 54.0566 22.5489H51.2345V27.2825H47.1954V12.8064ZM53.4128 19.2354V16.1199C53.4128 15.7885 53.2188 15.6207 52.8307 15.6207H51.2345V19.726H52.8307C53.2188 19.726 53.4128 19.5625 53.4128 19.2354Z" fill="#18181B"/>
<path d="M62.4473 27.2825H58.8403V12.8064H63.2498L65.6574 20.5436L68.0561 12.8064H72.4744V27.2825H68.8851V18.0822L67.0419 24.1498H64.264L62.4473 18.1252V27.2825Z" fill="#F43F5E"/>
<path d="M77.6455 12.8064H81.0673C83.3293 12.8064 84.4626 13.7402 84.4626 15.6035V24.4854C84.4626 26.3509 83.3293 27.2825 81.0673 27.2825H77.6455C75.3813 27.2825 74.2502 26.3509 74.2502 24.4854V15.6035C74.2502 13.7402 75.3813 12.8064 77.6455 12.8064ZM80.4147 23.969V16.1199C80.4147 15.7885 80.2229 15.6207 79.8414 15.6207H78.8714C78.4833 15.6207 78.2893 15.7885 78.2893 16.1199V23.969C78.2893 24.3025 78.4833 24.4682 78.8714 24.4682H79.8414C80.2229 24.4682 80.4147 24.3025 80.4147 23.969Z" fill="#18181B"/>
<path d="M93.0072 12.8064H96.7111V27.2825H93.2453L89.9382 19.683V27.2825H86.243V12.8064H89.7089L93.0072 20.5436V12.8064Z" fill="#18181B"/>
<path d="M102.597 24.4682H107.659V27.2825H98.5581V12.8064H107.448V15.6207H102.597V18.5814H106.786V21.3957H102.597V24.4682Z" fill="#18181B"/>
<path d="M116.137 27.2825H112.098V22.592L108.006 12.8064H112.142L114.083 18.917L115.882 12.8064H120L116.137 22.5489V27.2825Z" fill="#18181B"/>
</svg>
