<svg width="32" height="32" viewBox="0 0 32 32" fill="none" xmlns="http://www.w3.org/2000/svg">
<path fill-rule="evenodd" clip-rule="evenodd" d="M16.0001 5.33329C12.3182 5.33329 9.33341 8.31806 9.33341 12C9.33341 15.7172 11.4823 21.1564 16.0001 26.0737C20.5178 21.1564 22.6667 15.7172 22.6667 12C22.6667 8.31806 19.682 5.33329 16.0001 5.33329ZM6.66675 12C6.66675 6.8453 10.8454 2.66663 16.0001 2.66663C21.1547 2.66663 25.3334 6.8453 25.3334 12C25.3334 16.8696 22.4475 23.4382 16.9429 28.9428C16.4222 29.4635 15.578 29.4635 15.0573 28.9428C9.55267 23.4382 6.66675 16.8696 6.66675 12Z" fill="#A0ABBB"/>
<path fill-rule="evenodd" clip-rule="evenodd" d="M16.0001 13.3333C16.7365 13.3333 17.3334 12.7363 17.3334 12C17.3334 11.2636 16.7365 10.6666 16.0001 10.6666C15.2637 10.6666 14.6667 11.2636 14.6667 12C14.6667 12.7363 15.2637 13.3333 16.0001 13.3333ZM16.0001 16C18.2092 16 20.0001 14.2091 20.0001 12C20.0001 9.79082 18.2092 7.99996 16.0001 7.99996C13.7909 7.99996 12.0001 9.79082 12.0001 12C12.0001 14.2091 13.7909 16 16.0001 16Z" fill="#A0ABBB"/>
</svg>
