<svg width="32" height="32" viewBox="0 0 32 32" fill="none" xmlns="http://www.w3.org/2000/svg">
<path fill-rule="evenodd" clip-rule="evenodd" d="M6.66663 5.33337C4.45749 5.33337 2.66663 7.12423 2.66663 9.33337V22.6667C2.66663 24.8758 4.45749 26.6667 6.66663 26.6667H25.3333C27.5424 26.6667 29.3333 24.8758 29.3333 22.6667V9.33337C29.3333 7.12424 27.5424 5.33337 25.3333 5.33337H6.66663ZM6.43398 8.02027C6.50953 8.00697 6.58727 8.00004 6.66663 8.00004H25.3333C25.4127 8.00004 25.4904 8.00698 25.566 8.02027L16 14.3976L6.43398 8.02027ZM5.33329 10.4914V22.6667C5.33329 23.4031 5.93025 24 6.66663 24H25.3333C26.0697 24 26.6666 23.4031 26.6666 22.6667V10.4914L16.7396 17.1095C16.2917 17.408 15.7082 17.408 15.2604 17.1095L5.33329 10.4914Z" fill="#A0ABBB"/>
</svg>
